<svg xmlns="http://www.w3.org/2000/svg" viewBox="-6 -14 612 622" role="img" aria-label="Bhu-Rakshak"><defs><clipPath id="mark-out"><path d="M 0 64 L 205 6 L 395 6 L 600 64 L 600 380 C 600 470 480 545 300 600 C 120 545 0 470 0 380 Z"/></clipPath><clipPath id="mark-win"><path d="M 53 99 L 300 40 L 547 99 L 547 380 C 547 448 447 506 300 550 C 153 506 53 448 53 380 Z"/></clipPath><mask id="mark-band" maskUnits="userSpaceOnUse" x="-20" y="-20" width="640" height="720"><rect x="-20" y="-20" width="640" height="720" fill="#fff"/><rect x="205" y="-20" width="190" height="96" fill="#000"/></mask></defs><path d="M 0 64 L 205 6 L 395 6 L 600 64 L 600 380 C 600 470 480 545 300 600 C 120 545 0 470 0 380 Z" fill="#fff"/><g mask="url(#mark-band)"><path class="bm-draw" style="--d:0s" pathLength="1" d="M 0 64 L 205 6 L 395 6 L 600 64 L 600 380 C 600 470 480 545 300 600 C 120 545 0 470 0 380 Z" fill="none" stroke="#7d522d" stroke-width="68" clip-path="url(#mark-out)"/></g><g class="bm-fade" style="--d:0.7s" stroke="#fff" stroke-width="10" stroke-linecap="butt" clip-path="url(#mark-out)"><path d="M -4 60 L 40 100"/><path d="M 604 60 L 560 100"/><path d="M -6 260 L 44 252"/><path d="M 606 260 L 556 252"/><path d="M 14 470 L 58 450"/><path d="M 586 470 L 542 450"/><path d="M 196 574 L 220 538"/><path d="M 404 574 L 380 538"/></g><path class="bm-draw" style="--d:0.25s" pathLength="1" d="M 205 52 L 48 96 L 48 380 C 48 452 150 512 300 556 C 450 512 552 452 552 380 L 552 96 L 395 52" fill="none" stroke="#7d522d" stroke-width="9" stroke-linejoin="miter"/><g clip-path="url(#mark-win)"><g class="bm-rise" style="--d:0.35s"><path d="M 36 410 L 120 300 L 140 292 L 162 246 L 186 270 L 200 262 L 240 330 L 240 600 L 36 600 Z" fill="#2a6239" stroke="#1d4a2a" stroke-width="4" stroke-linejoin="round"/><path d="M 162 246 L 140 292 L 120 300 L 36 410 L 36 600 L 104 600 L 140 360 Z" fill="#3f8048" opacity=".75"/><path d="M 162 242 L 192 280 L 182 278 L 172 292 L 162 280 L 152 294 L 144 282 L 132 288 Z" fill="#f5f6f7"/><path d="M 162 242 L 192 280 L 182 278 L 172 292 L 166 284 Z" fill="#c3c8cc"/></g><g class="bm-rise" style="--d:0.42s"><path d="M 564 410 L 480 300 L 460 292 L 438 246 L 414 270 L 400 262 L 360 330 L 360 600 L 564 600 Z" fill="#2a6239" stroke="#1d4a2a" stroke-width="4" stroke-linejoin="round"/><path d="M 438 246 L 460 292 L 480 300 L 564 410 L 564 600 L 496 600 L 460 360 Z" fill="#24583a" opacity=".6"/><path d="M 438 242 L 408 280 L 418 278 L 428 292 L 438 280 L 448 294 L 456 282 L 468 288 Z" fill="#f5f6f7"/><path d="M 438 242 L 408 280 L 418 278 L 428 292 L 434 284 Z" fill="#c3c8cc"/></g><g class="bm-rise" style="--d:0.5s"><path d="M 300 164 L 318 186 L 330 182 L 372 248 L 400 268 L 492 600 L 108 600 L 200 268 L 228 248 L 270 182 L 282 186 Z" fill="#2e6a3d" stroke="#1d4a2a" stroke-width="4" stroke-linejoin="round"/><path d="M 300 164 L 282 186 L 270 182 L 228 248 L 200 268 L 108 600 L 198 600 L 214 400 L 246 330 L 268 262 L 286 212 Z" fill="#3f8048" opacity=".85"/><path d="M 300 164 L 318 186 L 330 182 L 372 248 L 400 268 L 492 600 L 424 600 L 382 330 L 348 252 Z" fill="#24583a" opacity=".55"/><path d="M 300 160 L 342 210 L 328 206 L 316 220 L 306 206 L 294 222 L 284 206 L 266 214 Z" fill="#f5f6f7"/><path d="M 300 160 L 342 210 L 328 206 L 316 220 L 306 206 L 300 213 Z" fill="#c3c8cc"/></g><g data-kind="root"><path class="bm-draw" style="--d:1s" pathLength="1" d="M 290 302 L 290 600" fill="none" stroke="#3f86c9" stroke-width="4" stroke-linecap="round" stroke-linejoin="round"/><path class="bm-flow" style="--d:0s" pathLength="1" d="M 290 302 L 290 600" fill="none" stroke="#bfe0ff" stroke-width="4" stroke-linecap="round" opacity="0"/><path class="bm-draw" style="--d:1.03s" pathLength="1" d="M 310 302 L 310 600" fill="none" stroke="#3f86c9" stroke-width="4" stroke-linecap="round" stroke-linejoin="round"/><path class="bm-flow" style="--d:0.9s" pathLength="1" d="M 310 302 L 310 600" fill="none" stroke="#bfe0ff" stroke-width="4" stroke-linecap="round" opacity="0"/><path class="bm-draw" style="--d:1.07s" pathLength="1" d="M 280 298 L 280 316 L 272 324 L 272 600" fill="none" stroke="#3f86c9" stroke-width="4" stroke-linecap="round" stroke-linejoin="round"/><path class="bm-flow" style="--d:0.37s" pathLength="1" d="M 280 298 L 280 316 L 272 324 L 272 600" fill="none" stroke="#bfe0ff" stroke-width="4" stroke-linecap="round" opacity="0"/><path class="bm-draw" style="--d:1.1s" pathLength="1" d="M 320 298 L 320 316 L 328 324 L 328 600" fill="none" stroke="#3f86c9" stroke-width="4" stroke-linecap="round" stroke-linejoin="round"/><path class="bm-flow" style="--d:1.27s" pathLength="1" d="M 320 298 L 320 316 L 328 324 L 328 600" fill="none" stroke="#bfe0ff" stroke-width="4" stroke-linecap="round" opacity="0"/><path class="bm-draw" style="--d:1.1400000000000001s" pathLength="1" d="M 270 292 L 262 300 L 262 336 L 252 346 L 252 600" fill="none" stroke="#3f86c9" stroke-width="4" stroke-linecap="round" stroke-linejoin="round"/><path class="bm-flow" style="--d:0.74s" pathLength="1" d="M 270 292 L 262 300 L 262 336 L 252 346 L 252 600" fill="none" stroke="#bfe0ff" stroke-width="4" stroke-linecap="round" opacity="0"/><path class="bm-draw" style="--d:1.1700000000000002s" pathLength="1" d="M 330 292 L 338 300 L 338 336 L 348 346 L 348 600" fill="none" stroke="#3f86c9" stroke-width="4" stroke-linecap="round" stroke-linejoin="round"/><path class="bm-flow" style="--d:1.6400000000000001s" pathLength="1" d="M 330 292 L 338 300 L 338 336 L 348 346 L 348 600" fill="none" stroke="#bfe0ff" stroke-width="4" stroke-linecap="round" opacity="0"/><path class="bm-draw" style="--d:1.21s" pathLength="1" d="M 262 286 L 244 304 L 244 322 L 230 336 L 230 600" fill="none" stroke="#3f86c9" stroke-width="4" stroke-linecap="round" stroke-linejoin="round"/><path class="bm-flow" style="--d:1.1099999999999999s" pathLength="1" d="M 262 286 L 244 304 L 244 322 L 230 336 L 230 600" fill="none" stroke="#bfe0ff" stroke-width="4" stroke-linecap="round" opacity="0"/><path class="bm-draw" style="--d:1.24s" pathLength="1" d="M 338 286 L 356 304 L 356 322 L 370 336 L 370 600" fill="none" stroke="#3f86c9" stroke-width="4" stroke-linecap="round" stroke-linejoin="round"/><path class="bm-flow" style="--d:2.01s" pathLength="1" d="M 338 286 L 356 304 L 356 322 L 370 336 L 370 600" fill="none" stroke="#bfe0ff" stroke-width="4" stroke-linecap="round" opacity="0"/><path class="bm-draw" style="--d:1.28s" pathLength="1" d="M 230 386 L 208 408 L 208 600" fill="none" stroke="#3f86c9" stroke-width="4" stroke-linecap="round" stroke-linejoin="round"/><path class="bm-flow" style="--d:1.48s" pathLength="1" d="M 230 386 L 208 408 L 208 600" fill="none" stroke="#bfe0ff" stroke-width="4" stroke-linecap="round" opacity="0"/><path class="bm-draw" style="--d:1.31s" pathLength="1" d="M 370 386 L 392 408 L 392 600" fill="none" stroke="#3f86c9" stroke-width="4" stroke-linecap="round" stroke-linejoin="round"/><path class="bm-flow" style="--d:0.17999999999999972s" pathLength="1" d="M 370 386 L 392 408 L 392 600" fill="none" stroke="#bfe0ff" stroke-width="4" stroke-linecap="round" opacity="0"/><path class="bm-draw" style="--d:1.35s" pathLength="1" d="M 208 440 L 184 464 L 184 600" fill="none" stroke="#3f86c9" stroke-width="4" stroke-linecap="round" stroke-linejoin="round"/><path class="bm-flow" style="--d:1.85s" pathLength="1" d="M 208 440 L 184 464 L 184 600" fill="none" stroke="#bfe0ff" stroke-width="4" stroke-linecap="round" opacity="0"/><path class="bm-draw" style="--d:1.3800000000000001s" pathLength="1" d="M 392 440 L 416 464 L 416 600" fill="none" stroke="#3f86c9" stroke-width="4" stroke-linecap="round" stroke-linejoin="round"/><path class="bm-flow" style="--d:0.5499999999999998s" pathLength="1" d="M 392 440 L 416 464 L 416 600" fill="none" stroke="#bfe0ff" stroke-width="4" stroke-linecap="round" opacity="0"/><path class="bm-draw" style="--d:1.42s" pathLength="1" d="M 258 280 L 224 280 L 212 292" fill="none" stroke="#3f86c9" stroke-width="4" stroke-linecap="round" stroke-linejoin="round"/><path class="bm-flow" style="--d:0.019999999999999574s" pathLength="1" d="M 258 280 L 224 280 L 212 292" fill="none" stroke="#bfe0ff" stroke-width="4" stroke-linecap="round" opacity="0"/><circle class="bm-pop" style="--d:1.8699999999999999s" cx="207" cy="297" r="7" fill="#2e6a3d" stroke="#3f86c9" stroke-width="3.5"/><path class="bm-draw" style="--d:1.45s" pathLength="1" d="M 342 280 L 376 280 L 388 292" fill="none" stroke="#3f86c9" stroke-width="4" stroke-linecap="round" stroke-linejoin="round"/><path class="bm-flow" style="--d:0.9199999999999995s" pathLength="1" d="M 342 280 L 376 280 L 388 292" fill="none" stroke="#bfe0ff" stroke-width="4" stroke-linecap="round" opacity="0"/><circle class="bm-pop" style="--d:1.9s" cx="393" cy="297" r="7" fill="#2e6a3d" stroke="#3f86c9" stroke-width="3.5"/><path class="bm-draw" style="--d:1.49s" pathLength="1" d="M 230 356 L 202 356 L 190 368" fill="none" stroke="#3f86c9" stroke-width="4" stroke-linecap="round" stroke-linejoin="round"/><path class="bm-flow" style="--d:0.3899999999999997s" pathLength="1" d="M 230 356 L 202 356 L 190 368" fill="none" stroke="#bfe0ff" stroke-width="4" stroke-linecap="round" opacity="0"/><circle class="bm-pop" style="--d:1.94s" cx="185" cy="373" r="7" fill="#2e6a3d" stroke="#3f86c9" stroke-width="3.5"/><path class="bm-draw" style="--d:1.52s" pathLength="1" d="M 370 356 L 398 356 L 410 368" fill="none" stroke="#3f86c9" stroke-width="4" stroke-linecap="round" stroke-linejoin="round"/><path class="bm-flow" style="--d:1.2899999999999996s" pathLength="1" d="M 370 356 L 398 356 L 410 368" fill="none" stroke="#bfe0ff" stroke-width="4" stroke-linecap="round" opacity="0"/><circle class="bm-pop" style="--d:1.97s" cx="415" cy="373" r="7" fill="#2e6a3d" stroke="#3f86c9" stroke-width="3.5"/><path class="bm-draw" style="--d:1.56s" pathLength="1" d="M 252 404 L 238 418" fill="none" stroke="#3f86c9" stroke-width="4" stroke-linecap="round" stroke-linejoin="round"/><path class="bm-flow" style="--d:0.7599999999999998s" pathLength="1" d="M 252 404 L 238 418" fill="none" stroke="#bfe0ff" stroke-width="4" stroke-linecap="round" opacity="0"/><circle class="bm-pop" style="--d:2.0100000000000002s" cx="233" cy="423" r="7" fill="#2e6a3d" stroke="#3f86c9" stroke-width="3.5"/><path class="bm-draw" style="--d:1.59s" pathLength="1" d="M 348 404 L 362 418" fill="none" stroke="#3f86c9" stroke-width="4" stroke-linecap="round" stroke-linejoin="round"/><path class="bm-flow" style="--d:1.6599999999999997s" pathLength="1" d="M 348 404 L 362 418" fill="none" stroke="#bfe0ff" stroke-width="4" stroke-linecap="round" opacity="0"/><circle class="bm-pop" style="--d:2.04s" cx="367" cy="423" r="7" fill="#2e6a3d" stroke="#3f86c9" stroke-width="3.5"/><path class="bm-draw" style="--d:1.6300000000000001s" pathLength="1" d="M 208 420 L 182 420 L 168 434" fill="none" stroke="#3f86c9" stroke-width="4" stroke-linecap="round" stroke-linejoin="round"/><path class="bm-flow" style="--d:1.13s" pathLength="1" d="M 208 420 L 182 420 L 168 434" fill="none" stroke="#bfe0ff" stroke-width="4" stroke-linecap="round" opacity="0"/><circle class="bm-pop" style="--d:2.08s" cx="163" cy="439" r="7" fill="#2e6a3d" stroke="#3f86c9" stroke-width="3.5"/><path class="bm-draw" style="--d:1.6600000000000001s" pathLength="1" d="M 392 420 L 418 420 L 432 434" fill="none" stroke="#3f86c9" stroke-width="4" stroke-linecap="round" stroke-linejoin="round"/><path class="bm-flow" style="--d:2.0300000000000002s" pathLength="1" d="M 392 420 L 418 420 L 432 434" fill="none" stroke="#bfe0ff" stroke-width="4" stroke-linecap="round" opacity="0"/><circle class="bm-pop" style="--d:2.1100000000000003s" cx="437" cy="439" r="7" fill="#2e6a3d" stroke="#3f86c9" stroke-width="3.5"/></g><circle class="bm-pop" style="--d:1s" cx="300" cy="318" r="6" fill="#3f86c9"/><path class="bm-draw" style="--d:0.95s" pathLength="1" d="M 300 304 L 300 600" fill="none" stroke="#3f86c9" stroke-width="4"/><path class="bm-flow" style="--d:0.2s" pathLength="1" d="M 300 600 L 300 304" fill="none" stroke="#bfe0ff" stroke-width="4" stroke-linecap="round" opacity="0"/></g><g data-kind="sky"><path class="bm-draw" style="--d:1.15s" pathLength="1" d="M 258 210 L 234 186 L 132 186 L 118 172 L 118 145" fill="none" stroke="#3f86c9" stroke-width="4" stroke-linecap="round" stroke-linejoin="round"/><path class="bm-flow" style="--d:0s" pathLength="1" d="M 258 210 L 234 186 L 132 186 L 118 172 L 118 145" fill="none" stroke="#bfe0ff" stroke-width="4" stroke-linecap="round" opacity="0"/><circle class="bm-pop" style="--d:1.5999999999999999s" cx="118" cy="138" r="7" fill="#fff" stroke="#3f86c9" stroke-width="3.5"/><path class="bm-draw" style="--d:1.18s" pathLength="1" d="M 342 210 L 366 186 L 468 186 L 482 172 L 482 145" fill="none" stroke="#3f86c9" stroke-width="4" stroke-linecap="round" stroke-linejoin="round"/><path class="bm-flow" style="--d:0.9s" pathLength="1" d="M 342 210 L 366 186 L 468 186 L 482 172 L 482 145" fill="none" stroke="#bfe0ff" stroke-width="4" stroke-linecap="round" opacity="0"/><circle class="bm-pop" style="--d:1.63s" cx="482" cy="138" r="7" fill="#fff" stroke="#3f86c9" stroke-width="3.5"/><path class="bm-draw" style="--d:1.22s" pathLength="1" d="M 248 226 L 226 204 L 176 204 L 164 192 L 164 182" fill="none" stroke="#3f86c9" stroke-width="4" stroke-linecap="round" stroke-linejoin="round"/><path class="bm-flow" style="--d:0.37s" pathLength="1" d="M 248 226 L 226 204 L 176 204 L 164 192 L 164 182" fill="none" stroke="#bfe0ff" stroke-width="4" stroke-linecap="round" opacity="0"/><circle class="bm-pop" style="--d:1.67s" cx="164" cy="175" r="7" fill="#fff" stroke="#3f86c9" stroke-width="3.5"/><path class="bm-draw" style="--d:1.25s" pathLength="1" d="M 352 226 L 374 204 L 424 204 L 436 192 L 436 182" fill="none" stroke="#3f86c9" stroke-width="4" stroke-linecap="round" stroke-linejoin="round"/><path class="bm-flow" style="--d:1.27s" pathLength="1" d="M 352 226 L 374 204 L 424 204 L 436 192 L 436 182" fill="none" stroke="#bfe0ff" stroke-width="4" stroke-linecap="round" opacity="0"/><circle class="bm-pop" style="--d:1.7s" cx="436" cy="175" r="7" fill="#fff" stroke="#3f86c9" stroke-width="3.5"/><path class="bm-draw" style="--d:1.29s" pathLength="1" d="M 236 240 L 220 224 L 90 224" fill="none" stroke="#3f86c9" stroke-width="4" stroke-linecap="round" stroke-linejoin="round"/><path class="bm-flow" style="--d:0.74s" pathLength="1" d="M 236 240 L 220 224 L 90 224" fill="none" stroke="#bfe0ff" stroke-width="4" stroke-linecap="round" opacity="0"/><circle class="bm-pop" style="--d:1.74s" cx="83" cy="224" r="7" fill="#fff" stroke="#3f86c9" stroke-width="3.5"/><path class="bm-draw" style="--d:1.32s" pathLength="1" d="M 364 240 L 380 224 L 510 224" fill="none" stroke="#3f86c9" stroke-width="4" stroke-linecap="round" stroke-linejoin="round"/><path class="bm-flow" style="--d:1.6400000000000001s" pathLength="1" d="M 364 240 L 380 224 L 510 224" fill="none" stroke="#bfe0ff" stroke-width="4" stroke-linecap="round" opacity="0"/><circle class="bm-pop" style="--d:1.77s" cx="517" cy="224" r="7" fill="#fff" stroke="#3f86c9" stroke-width="3.5"/></g><g class="bm-glow" opacity="0"><circle cx="300" cy="262" r="50" fill="#3f86c9" opacity=".2"/></g><g class="bm-pop" style="--d:1.05s"><circle cx="300" cy="262" r="40" fill="#fff" stroke="#3f86c9" stroke-width="5"/><g fill="none" stroke="#3f86c9" stroke-width="3.2" stroke-linejoin="round" stroke-linecap="round"><path d="M 296 234 C 284 230 272 236 272 246 C 262 250 262 264 268 270 C 264 282 276 292 288 288 C 291 293 296 292 296 288 Z"/><path d="M 304 234 C 316 230 328 236 328 246 C 338 250 338 264 332 270 C 336 282 324 292 312 288 C 309 293 304 292 304 288 Z"/><path d="M 296 248 L 282 242 L 274 256 L 284 268 L 296 264 M 284 268 L 280 282 M 282 242 L 288 234 M 274 256 L 266 262"/><path d="M 304 248 L 318 242 L 326 256 L 316 268 L 304 264 M 316 268 L 320 282 M 318 242 L 312 234 M 326 256 L 334 262"/></g></g><g class="bm-drop bm-bang" style="--d:1.25s" fill="#3f86c9"><path d="M 285 20 L 300 10 L 315 20 L 310 104 L 290 104 Z"/><path d="M 297 30 L 303 30 L 302 84 L 298 84 Z" fill="#fff"/><circle cx="300" cy="124" r="12"/></g><g fill="none" stroke="#3f86c9" stroke-width="12" stroke-linecap="round"><path class="bm-wave" style="--w:0;--d:1.45s" d="M 275.6 53 A 46 46 0 0 0 275.6 131"/><path class="bm-wave" style="--w:0;--d:1.45s" d="M 324.4 53 A 46 46 0 0 1 324.4 131"/><path class="bm-wave" style="--w:1;--d:1.5699999999999998s" d="M 259.7 27.6 A 76 76 0 0 0 259.7 156.4"/><path class="bm-wave" style="--w:1;--d:1.5699999999999998s" d="M 340.3 27.6 A 76 76 0 0 1 340.3 156.4"/><path class="bm-wave" style="--w:2;--d:1.69s" d="M 243.8 2.1 A 106 106 0 0 0 243.8 181.9"/><path class="bm-wave" style="--w:2;--d:1.69s" d="M 356.2 2.1 A 106 106 0 0 1 356.2 181.9"/></g></svg>
